HIERARCHY
ROOT Hips
{
    OFFSET 0.000000 0.000000 0.000000
    CHANNELS 6 Xposition Yposition Zposition Zrotation Xrotation Yrotation
    JOINT Spine
    {
        OFFSET -0.000000 0.081317 0.000000
        CHANNELS 3 Zrotation Xrotation Yrotation
        JOINT Spine1
        {
            OFFSET -0.000000 0.225200 0.000000
            CHANNELS 3 Zrotation Xrotation Yrotation
            JOINT Neck
            {
                OFFSET -0.000000 0.224275 0.020389
                CHANNELS 3 Zrotation Xrotation Yrotation
                JOINT Head
                {
                    OFFSET -0.000000 0.138833 -0.019833
                    CHANNELS 3 Zrotation Xrotation Yrotation
                    End Site
                    {
                        OFFSET -0.000000 0.198333 0.000000
                    }
                }
            }
            JOINT LeftShoulder
            {
                OFFSET 0.039732 0.208237 -0.000812
                CHANNELS 3 Zrotation Xrotation Yrotation
                JOINT LeftArm
                {
                    OFFSET 0.110955 0.000000 0.000000
                    CHANNELS 3 Zrotation Xrotation Yrotation
                    JOINT LeftForeArm
                    {
                        OFFSET 0.324523 0.000000 0.000000
                        CHANNELS 3 Zrotation Xrotation Yrotation
                        JOINT LeftHand
                        {
                            OFFSET 0.302601 0.000000 0.000000
                            CHANNELS 3 Zrotation Xrotation Yrotation
                            End Site
                            {
                                OFFSET 0.148750 0.000000 0.000000
                            }
                        }
                    }
                }
            }
            JOINT RightShoulder
            {
                OFFSET -0.039598 0.208237 -0.000812
                CHANNELS 3 Zrotation Xrotation Yrotation
                JOINT RightArm
                {
                    OFFSET -0.110955 0.000000 0.000000
                    CHANNELS 3 Zrotation Xrotation Yrotation
                    JOINT RightForeArm
                    {
                        OFFSET -0.324523 0.000000 0.000000
                        CHANNELS 3 Zrotation Xrotation Yrotation
                        JOINT RightHand
                        {
                            OFFSET -0.302601 0.000000 0.000000
                            CHANNELS 3 Zrotation Xrotation Yrotation
                            End Site
                            {
                                OFFSET -0.148750 0.000000 0.000000
                            }
                        }
                    }
                }
            }
        }
    }
    JOINT LeftUpLeg
    {
        OFFSET 0.099167 0.000000 0.000000
        CHANNELS 3 Zrotation Xrotation Yrotation
        JOINT LeftLeg
        {
            OFFSET -0.000000 -0.380753 0.000000
            CHANNELS 3 Zrotation Xrotation Yrotation
            JOINT LeftFoot
            {
                OFFSET -0.000000 -0.440093 0.000000
                CHANNELS 3 Zrotation Xrotation Yrotation
                JOINT LeftToeBase
                {
                    OFFSET -0.000000 -0.064458 0.148750
                    CHANNELS 3 Zrotation Xrotation Yrotation
                    End Site
                    {
                        OFFSET -0.000000 0.000000 0.039667
                    }
                }
            }
        }
    }
    JOINT RightUpLeg
    {
        OFFSET -0.099167 0.000000 0.000000
        CHANNELS 3 Zrotation Xrotation Yrotation
        JOINT RightLeg
        {
            OFFSET -0.000000 -0.380753 0.000000
            CHANNELS 3 Zrotation Xrotation Yrotation
            JOINT RightFoot
            {
                OFFSET -0.000000 -0.440093 0.000000
                CHANNELS 3 Zrotation Xrotation Yrotation
                JOINT RightToeBase
                {
                    OFFSET -0.000000 -0.064458 0.148750
                    CHANNELS 3 Zrotation Xrotation Yrotation
                    End Site
                    {
                        OFFSET -0.000000 0.000000 0.039667
                    }
                }
            }
        }
    }
}
MOTION
Frames:    11
Frame Time:    0.010000
-0.394542    0.997242    0.261413    -30.958319    20.457264    37.394699    1.650895    -15.275069    4.132174    16.916824    29.041294    -3.074942    12.524603    45.483765    -9.096812    4.480947    -51.389221    -2.992115    -5.696465    17.950443    -19.544039    -33.297695    7.774796    16.147820    -10.666800    30.362720    -27.226810    18.629910    23.706745    -29.135420    0.548913    -13.202744    19.380753    0.961490    48.042442    71.935562    -40.045238    -49.067123    98.360931    17.811647    -4.744552    1.002738    25.138176    -52.230751    41.701820    17.820066    28.509417    9.063432    2.322564    28.865526    -16.219732    0.000000    0.000000    0.000000    16.529984    -25.061485    -9.225251    -10.245515    29.301615    26.546354    -5.728692    23.877048    -11.064699    0.000000    0.000000    0.000000    
-0.389646    0.994371    0.264425    -30.203785    20.235285    37.605839    1.795486    -16.220842    3.694140    15.720136    30.845720    -3.181408    11.728624    44.383701    -8.638201    3.911284    -50.001865    -3.296133    -6.049002    17.368927    -18.690592    -32.150318    4.579217    13.900049    -11.038261    31.542665    -23.368935    21.335960    24.337337    -30.420540    1.330629    -11.517307    19.237871    1.275817    48.694233    69.570564    -40.219986    -49.396973    97.514458    17.187792    -5.831284    1.095230    23.768923    -51.837540    40.951324    16.806671    26.035347    6.582512    2.322564    28.865526    -16.219732    0.000000    0.000000    0.000000    15.918235    -24.549452    -8.262339    -12.603280    35.525105    28.664682    -5.728692    23.877048    -11.064699    0.000000    0.000000    0.000000    
-0.386016    0.989877    0.268256    -29.690685    20.150448    37.655273    1.601225    -17.786213    3.492387    15.912984    33.322899    -3.684566    4.692179    42.687950    -6.491850    12.550528    -47.684032    1.457437    -7.455543    16.294920    -17.462120    -30.715355    1.746927    11.353432    -11.336745    31.362909    -20.230841    22.232117    24.119308    -30.589735    1.066002    -10.559793    18.496435    3.373300    49.471699    66.893951    -34.859745    -48.483665    100.697044    12.769893    -9.689666    1.485760    23.383272    -51.708099    40.849152    16.094854    24.527884    5.418457    2.322564    28.865526    -16.219732    0.000000    0.000000    0.000000    15.836789    -24.419544    -5.193913    -14.018000    42.600182    26.029417    -5.728692    23.877048    -11.064699    0.000000    0.000000    0.000000    
-0.381606    0.984361    0.270552    -29.030575    19.807741    37.554932    1.848484    -18.434235    3.332279    15.007100    35.008183    -3.722645    4.052438    41.636761    -6.477531    12.712961    -47.222694    1.285378    -8.310037    15.680629    -16.196573    -30.020439    -1.268556    8.854280    -11.021039    31.633936    -17.932777    25.283607    23.527243    -32.135765    2.112150    -9.189592    17.574520    4.470136    50.537621    64.076805    -36.656376    -48.250675    97.436005    12.575065    -9.622479    0.765867    22.632332    -51.585922    39.392017    16.026039    24.347467    4.076894    2.322564    28.865526    -16.219732    0.000000    0.000000    0.000000    15.530744    -23.535126    -1.752394    -14.136208    49.413555    22.770161    -5.728692    23.877048    -11.064699    0.000000    0.000000    0.000000    
-0.377356    0.977178    0.273418    -28.261602    19.446590    37.416996    1.819724    -19.214924    3.096050    14.202849    36.655766    -3.775316    2.917825    40.738091    -6.040299    13.070125    -46.186882    1.488229    -8.940886    14.965273    -15.174750    -29.943344    -4.278782    6.703514    -10.429796    28.689995    -17.185747    24.346811    21.106131    -30.679970    3.395432    -7.589286    16.779766    6.347737    51.455132    60.343964    -39.401077    -47.607853    92.875984    11.991571    -8.900372    -0.339405    21.760344    -51.458847    37.334709    16.412502    24.799633    4.800679    2.322564    28.865526    -16.219732    0.000000    0.000000    0.000000    15.573718    -23.753321    1.653682    -15.190368    58.467087    22.145712    -5.728692    23.877048    -11.064699    0.000000    0.000000    0.000000    
-0.372942    0.968229    0.277737    -27.164209    18.812702    36.911121    2.537736    -19.310488    2.189095    11.456185    37.526020    -3.299571    -1.377166    41.942211    -4.264214    18.173883    -46.027451    4.986907    -10.852455    14.777903    -12.802798    -28.672493    -6.837709    5.156408    -9.640664    26.675949    -17.364931    24.215643    19.110014    -30.653149    5.016588    -4.837236    18.027794    11.949112    51.108677    53.374027    -39.232910    -45.454746    90.540291    11.479691    -8.028081    -0.676669    21.031818    -50.729095    35.882019    17.386923    25.514359    6.292008    2.322564    28.865526    -16.219732    0.000000    0.000000    0.000000    15.558562    -23.184837    4.421337    -16.853828    67.111130    21.259939    -5.728692    23.877048    -11.064699    0.000000    0.000000    0.000000    
-0.367595    0.957869    0.281364    -25.854961    17.991709    36.449165    1.881696    -19.852238    2.457614    11.319115    39.762238    -3.380621    0.607838    40.152397    -4.843352    15.313750    -45.112640    3.218291    -10.608165    13.646135    -12.595033    -29.780201    -10.131917    3.472131    -8.444653    25.826731    -19.116497    24.109577    18.542952    -29.494627    6.320192    -4.048635    15.711525    14.239754    52.119183    49.487904    -40.192387    -44.880608    86.835793    12.477674    -9.000497    -0.804363    19.754902    -49.613819    34.516354    18.880325    26.135094    5.170505    2.322564    28.865526    -16.219732    0.000000    0.000000    0.000000    15.480089    -22.145067    6.275815    -23.246469    75.674896    31.016594    -5.728692    23.877048    -11.064699    0.000000    0.000000    0.000000    
-0.362298    0.946068    0.285189    -24.519733    17.036350    35.879955    1.759686    -19.785904    2.009167    9.949657    40.899296    -3.138162    0.216211    40.209061    -4.050820    14.520482    -44.815575    3.485833    -11.495010    12.754820    -11.553180    -30.065914    -13.700130    2.446045    -7.961442    24.813038    -21.297812    23.389601    17.661692    -29.176334    7.562022    -2.294504    15.196786    18.740694    52.195133    43.751274    -40.093208    -43.553608    83.448547    12.445632    -9.862926    -1.141709    18.823341    -48.159683    33.644341    20.186546    26.616692    4.962656    2.322564    28.865526    -16.219732    0.000000    0.000000    0.000000    15.144399    -21.151894    7.037975    -48.156334    83.216240    55.806126    -5.728692    23.877048    -11.064699    0.000000    0.000000    0.000000    
-0.357798    0.933091    0.288926    -23.435501    16.168121    35.186600    1.638532    -19.927517    1.910112    9.031812    42.446072    -2.965871    -1.855425    39.044773    -3.089929    17.119110    -43.746143    5.219581    -12.313842    10.931382    -10.514709    -30.921158    -16.099422    1.509578    -7.080003    24.621893    -24.559772    23.889917    17.388432    -28.717705    8.375621    -1.668089    13.795177    24.191422    52.104034    37.817478    -38.969276    -41.620895    80.886147    12.572886    -10.285120    -1.394077    18.719734    -46.663990    33.250404    20.759497    27.431011    3.370917    2.322564    28.865526    -16.219732    0.000000    0.000000    0.000000    14.982527    -20.267529    6.967772    -125.540657    83.443901    131.872604    -5.728692    23.877048    -11.064699    0.000000    0.000000    0.000000    
-0.354028    0.919699    0.291644    -22.574930    15.425442    34.488087    1.655684    -19.830925    1.689554    7.574168    43.245453    -2.534975    -2.553144    38.459263    -2.507849    17.897028    -43.295574    6.015328    -12.733927    8.830627    -9.478949    -32.338379    -17.957832    1.072823    -6.194765    24.691376    -28.583830    24.578289    17.391996    -28.077761    9.150531    -1.073249    12.639668    29.883989    51.760471    32.061684    -38.234142    -39.615288    77.411034    13.150396    -10.641552    -1.535226    18.950628    -45.472462    33.041729    20.891102    28.794420    1.260892    2.322564    28.865526    -16.219732    0.000000    0.000000    0.000000    14.677941    -19.581589    6.996099    -155.950577    77.018837    161.708023    -5.728692    23.877048    -11.064699    0.000000    0.000000    0.000000    
-0.351267    0.906507    0.290731    -22.101488    15.459636    33.931469    1.817204    -19.779066    1.669484    5.558875    43.398495    -1.759141    -0.693773    37.878635    -2.652317    15.651049    -43.951233    5.214834    -12.676663    6.485634    -8.407267    -34.410938    -18.901993    0.508341    -5.358233    24.091570    -33.759129    24.706745    16.979815    -26.752836    9.968531    -1.152081    11.020285    35.642822    51.680054    26.021786    -37.752174    -37.812943    73.844070    13.552584    -10.928787    -1.761403    18.997149    -45.330318    31.728193    19.661081    30.350803    5.780849    2.322564    28.865526    -16.219732    0.000000    0.000000    0.000000    13.935206    -20.113222    7.309289    -166.002060    69.540306    171.857986    -5.728692    23.877048    -11.064699    0.000000    0.000000    0.000000    
